<svg width="13" height="13" viewBox="0 0 13 13" fill="none" xmlns="http://www.w3.org/2000/svg">
<path fill-rule="evenodd" clip-rule="evenodd" d="M6.7767 2.42505C6.92316 2.25706 7.17808 2.2396 7.34606 2.38605L10.4881 5.12521C10.6149 5.23577 10.6597 5.41345 10.6007 5.57099C10.5417 5.72853 10.3911 5.83291 10.2229 5.83291H2.69016C2.46729 5.83291 2.28662 5.65223 2.28662 5.42937C2.28662 5.20652 2.46729 5.02585 2.69016 5.02585H9.14589L6.81571 2.9944C6.64773 2.84795 6.63024 2.59304 6.7767 2.42505Z" fill="#1B1B1B"/>
<path fill-rule="evenodd" clip-rule="evenodd" d="M6.13633 10.488C5.98987 10.6561 5.73495 10.6735 5.56697 10.5271L2.425 7.7879C2.29818 7.67733 2.25326 7.49966 2.31229 7.34212C2.37133 7.18458 2.52192 7.0802 2.69018 7.0802H10.2229C10.4457 7.0802 10.6264 7.26088 10.6264 7.48374C10.6264 7.7066 10.4457 7.88727 10.2229 7.88727H3.76714L6.09732 9.91873C6.2653 10.0652 6.28279 10.3201 6.13633 10.488Z" fill="#1B1B1B"/>
</svg>
