<svg width="17" height="17" viewBox="0 0 17 17" fill="none" xmlns="http://www.w3.org/2000/svg">
<path fill-rule="evenodd" clip-rule="evenodd" d="M8.63911 3.09155C8.82582 2.87739 9.15081 2.85513 9.36495 3.04184L13.3705 6.53379C13.5321 6.67474 13.5893 6.90125 13.5141 7.10208C13.4388 7.30292 13.2468 7.43599 13.0324 7.43599H3.42948C3.14536 7.43599 2.91504 7.20566 2.91504 6.92155C2.91504 6.63745 3.14536 6.40712 3.42948 6.40712H11.6594L8.68884 3.81738C8.4747 3.63068 8.4524 3.30571 8.63911 3.09155Z" fill="#1B1B1B"/>
<path fill-rule="evenodd" clip-rule="evenodd" d="M7.82275 13.3705C7.63605 13.5847 7.31106 13.607 7.09691 13.4203L3.09145 9.92831C2.92977 9.78736 2.87251 9.56087 2.94777 9.36003C3.02303 9.15919 3.21501 9.02612 3.4295 9.02612H13.0324C13.3165 9.02612 13.5468 9.25646 13.5468 9.54056C13.5468 9.82467 13.3165 10.055 13.0324 10.055H4.80245L7.77303 12.6448C7.98717 12.8315 8.00946 13.1564 7.82275 13.3705Z" fill="#1B1B1B"/>
</svg>
