<svg width="13" height="13" viewBox="0 0 13 13" fill="none" xmlns="http://www.w3.org/2000/svg">
<path fill-rule="evenodd" clip-rule="evenodd" d="M11.4336 3.76637C11.4336 2.80061 10.6507 2.01771 9.68494 2.01771H3.22834C2.26258 2.01771 1.47968 2.80061 1.47968 3.76637V9.14686C1.47968 10.1126 2.26258 10.8955 3.22834 10.8955H8.07079C8.29365 10.8955 8.47432 11.0762 8.47432 11.2991C8.47432 11.5219 8.29365 11.7026 8.07079 11.7026H3.22834C1.81685 11.7026 0.672607 10.5584 0.672607 9.14686V3.76637C0.672607 2.35488 1.81685 1.21063 3.22834 1.21063H9.68494C11.0965 1.21063 12.2407 2.35488 12.2407 3.76637V6.99466C12.2407 7.21752 12.06 7.3982 11.8371 7.3982C11.6143 7.3982 11.4336 7.21752 11.4336 6.99466V3.76637Z" fill="#1B1B1B"/>
<path d="M3.76628 9.14688C3.76628 9.44404 3.52539 9.68492 3.22824 9.68492C2.93108 9.68492 2.69019 9.44404 2.69019 9.14688C2.69019 8.84971 2.93108 8.60883 3.22824 8.60883C3.52539 8.60883 3.76628 8.84971 3.76628 9.14688Z" fill="#1B1B1B"/>
<path fill-rule="evenodd" clip-rule="evenodd" d="M11.4336 4.16993H1.47968V5.51505H11.4336V4.16993ZM12.2407 3.76639V5.91859C12.2407 6.14145 12.06 6.32213 11.8371 6.32213H1.07614C0.969121 6.32213 0.866477 6.27962 0.790801 6.20392C0.715124 6.12827 0.672607 6.02561 0.672607 5.91859V3.76639C0.672607 3.54353 0.853279 3.36285 1.07614 3.36285H11.8371C12.06 3.36285 12.2407 3.54353 12.2407 3.76639Z" fill="#1B1B1B"/>
<path fill-rule="evenodd" clip-rule="evenodd" d="M10.3576 10.5478L9.97035 10.1605C9.81275 10.0029 9.55728 10.0029 9.39969 10.1605C9.2421 10.3181 9.2421 10.5737 9.39969 10.7312L10.0953 11.4268C10.463 11.7946 11.0592 11.7946 11.4269 11.4268L12.1225 10.7312C12.2801 10.5737 12.2801 10.3181 12.1225 10.1605C11.9649 10.0029 11.7095 10.0029 11.5519 10.1605L11.1647 10.5478V8.60886C11.1647 8.386 10.984 8.20532 10.7611 8.20532C10.5383 8.20532 10.3576 8.386 10.3576 8.60886V10.5478Z" fill="#1B1B1B"/>
</svg>
