<svg width="17" height="17" viewBox="0 0 17 17" fill="none" xmlns="http://www.w3.org/2000/svg">
<path fill-rule="evenodd" clip-rule="evenodd" d="M14.5758 4.80146C14.5758 3.57028 13.5777 2.57222 12.3466 2.57222H4.11554C2.88436 2.57222 1.8863 3.57028 1.8863 4.80146V11.6607C1.8863 12.8918 2.88436 13.8899 4.11554 13.8899H10.2888C10.5729 13.8899 10.8033 14.1202 10.8033 14.4043C10.8033 14.6884 10.5729 14.9188 10.2888 14.9188H4.11554C2.31613 14.9188 0.857422 13.4601 0.857422 11.6607V4.80146C0.857422 3.00205 2.31613 1.54333 4.11554 1.54333H12.3466C14.146 1.54333 15.6047 3.00205 15.6047 4.80146V8.91698C15.6047 9.20108 15.3744 9.43142 15.0903 9.43142C14.8062 9.43142 14.5758 9.20108 14.5758 8.91698V4.80146Z" fill="#1B1B1B"/>
<path d="M4.80153 11.6607C4.80153 12.0395 4.49443 12.3466 4.11561 12.3466C3.73679 12.3466 3.42969 12.0395 3.42969 11.6607C3.42969 11.2818 3.73679 10.9747 4.11561 10.9747C4.49443 10.9747 4.80153 11.2818 4.80153 11.6607Z" fill="#1B1B1B"/>
<path fill-rule="evenodd" clip-rule="evenodd" d="M14.5758 5.31587H1.8863V7.03067H14.5758V5.31587ZM15.6047 4.80143V7.54511C15.6047 7.82922 15.3744 8.05955 15.0903 8.05955H1.37186C1.23543 8.05955 1.10457 8.00536 1.0081 7.90885C0.911623 7.81241 0.857422 7.68154 0.857422 7.54511V4.80143C0.857422 4.51731 1.08775 4.28699 1.37186 4.28699H15.0903C15.3744 4.28699 15.6047 4.51731 15.6047 4.80143Z" fill="#1B1B1B"/>
<path fill-rule="evenodd" clip-rule="evenodd" d="M13.2041 13.4465L12.7104 12.9529C12.5095 12.752 12.1839 12.752 11.983 12.9529C11.782 13.1538 11.782 13.4795 11.983 13.6804L12.8698 14.5672C13.3385 15.036 14.0985 15.036 14.5673 14.5672L15.4541 13.6804C15.655 13.4795 15.655 13.1538 15.4541 12.9529C15.2532 12.752 14.9275 12.752 14.7266 12.9529L14.233 13.4465V10.9748C14.233 10.6907 14.0026 10.4603 13.7185 10.4603C13.4344 10.4603 13.2041 10.6907 13.2041 10.9748V13.4465Z" fill="#1B1B1B"/>
</svg>
