<svg width="13" height="13" viewBox="0 0 13 13" fill="none" xmlns="http://www.w3.org/2000/svg">
<g clip-path="url(#clip0_15_227)">
<path d="M8.0708 10.0884H4.8425C4.73548 10.0884 4.63284 10.0459 4.55716 9.97025C4.48148 9.89458 4.43896 9.79193 4.43896 9.68491C4.43896 9.57788 4.48148 9.47524 4.55716 9.39957C4.63284 9.32389 4.73548 9.28137 4.8425 9.28137H8.0708C8.17782 9.28137 8.28046 9.32389 8.35614 9.39957C8.43182 9.47524 8.47434 9.57788 8.47434 9.68491C8.47434 9.79193 8.43182 9.89458 8.35614 9.97025C8.28046 10.0459 8.17782 10.0884 8.0708 10.0884Z" fill="#1B1B1B"/>
<path d="M9.68494 12.2406H3.22835C2.55079 12.2398 1.90122 11.9702 1.42212 11.4911C0.943007 11.012 0.673469 10.3625 0.672614 9.68491V5.87659C0.671722 5.4932 0.757497 5.11457 0.923528 4.769C1.08956 4.42343 1.33155 4.11985 1.63142 3.88097L5.196 1.0293C5.55283 0.741078 5.99768 0.583862 6.45638 0.583862C6.91508 0.583862 7.35992 0.741078 7.71676 1.0293L11.2808 3.88097C11.5808 4.11975 11.823 4.42329 11.9891 4.76888C12.1552 5.11446 12.241 5.49315 12.2401 5.87659V9.68491C12.2393 10.3624 11.9698 11.0119 11.4908 11.491C11.0118 11.97 10.3624 12.2396 9.68494 12.2406ZM2.13611 4.51102C1.93082 4.67442 1.76514 4.88213 1.65146 5.11861C1.53779 5.35509 1.47907 5.61421 1.47969 5.87659V9.68491C1.48026 10.1485 1.66467 10.593 1.99249 10.9208C2.3203 11.2486 2.76475 11.433 3.22835 11.4336H9.68494C10.1485 11.433 10.593 11.2486 10.9208 10.9208C11.2486 10.593 11.433 10.1485 11.4336 9.68491V5.87659C11.4342 5.61421 11.3755 5.35509 11.2618 5.11861C11.1482 4.88213 10.9825 4.67442 10.7772 4.51102L7.21314 1.65936C6.99899 1.48654 6.7321 1.39228 6.45692 1.39228C6.18173 1.39228 5.91484 1.48654 5.70069 1.65936L2.13557 4.51102H2.13611Z" fill="#1B1B1B"/>
</g>
<defs>
<clipPath id="clip0_15_227">
<rect width="12.9132" height="12.9132" fill="white"/>
</clipPath>
</defs>
</svg>
