<svg width="17" height="17" viewBox="0 0 17 17" fill="none" xmlns="http://www.w3.org/2000/svg">
<path d="M10.2889 12.8609H6.17338C6.03694 12.8609 5.90609 12.8067 5.80961 12.7102C5.71314 12.6138 5.65894 12.4829 5.65894 12.3465C5.65894 12.21 5.71314 12.0792 5.80961 11.9827C5.90609 11.8862 6.03694 11.832 6.17338 11.832H10.2889C10.4253 11.832 10.5562 11.8862 10.6527 11.9827C10.7491 12.0792 10.8033 12.21 10.8033 12.3465C10.8033 12.4829 10.7491 12.6138 10.6527 12.7102C10.5562 12.8067 10.4253 12.8609 10.2889 12.8609Z" fill="#1B1B1B"/>
<path d="M12.3466 15.6046H4.11555C3.25178 15.6036 2.4237 15.2599 1.81291 14.6492C1.20213 14.0384 0.85852 13.2103 0.857431 12.3465V7.49158C0.856293 7.00283 0.965641 6.52014 1.1773 6.07959C1.38896 5.63905 1.69746 5.25204 2.07974 4.9475L6.62396 1.31212C7.07887 0.944686 7.64597 0.744263 8.23073 0.744263C8.81549 0.744263 9.38259 0.944686 9.8375 1.31212L14.381 4.9475C14.7635 5.2519 15.0722 5.63887 15.284 6.07943C15.4958 6.52 15.6052 7.00275 15.604 7.49158V12.3465C15.6029 13.2102 15.2594 14.0382 14.6488 14.6489C14.0382 15.2597 13.2102 15.6034 12.3466 15.6046ZM2.72313 5.75071C2.46142 5.95902 2.25021 6.22381 2.10529 6.52528C1.96038 6.82675 1.88552 7.15709 1.88631 7.49158V12.3465C1.88704 12.9375 2.12214 13.5041 2.54004 13.922C2.95795 14.3399 3.52454 14.575 4.11555 14.5758H12.3466C12.9376 14.575 13.5042 14.3399 13.9221 13.922C14.34 13.5041 14.5751 12.9375 14.5758 12.3465V7.49158C14.5766 7.15709 14.5018 6.82675 14.3569 6.52528C14.2119 6.22381 14.0007 5.95902 13.739 5.75071L9.19548 2.11534C8.92247 1.89502 8.58223 1.77485 8.23142 1.77485C7.8806 1.77485 7.54036 1.89502 7.26735 2.11534L2.72245 5.75071H2.72313Z" fill="#1B1B1B"/>
</svg>
