<svg width="30" height="32" viewBox="0 0 30 32" fill="none" xmlns="http://www.w3.org/2000/svg">
<circle cx="14.8863" cy="16.0497" r="9.26182" fill="url(#paint0_linear_1_664)"/>
<path d="M13.2435 18.3327L11.3437 16.4329C11.2414 16.3306 11.1025 16.273 10.9577 16.273C10.813 16.273 10.6741 16.3306 10.5717 16.4329C10.4694 16.5353 10.4119 16.6741 10.4119 16.8189C10.4119 16.8906 10.426 16.9616 10.4534 17.0278C10.4808 17.094 10.5211 17.1542 10.5717 17.2049L12.8603 19.4934C13.0738 19.707 13.4187 19.707 13.6323 19.4934L19.4248 13.7009C19.5272 13.5985 19.5847 13.4597 19.5847 13.3149C19.5847 13.1701 19.5272 13.0313 19.4248 12.9289C19.3224 12.8266 19.1836 12.769 19.0388 12.769C18.8941 12.769 18.7552 12.8266 18.6528 12.9289L13.2435 18.3327Z" fill="#E9F4F9"/>
<defs>
<linearGradient id="paint0_linear_1_664" x1="-9.11854" y1="-15.9253" x2="25.1247" y2="-17.5504" gradientUnits="userSpaceOnUse">
<stop stop-color="#00B4FD"/>
<stop offset="0.815786" stop-color="#003ACE"/>
</linearGradient>
</defs>
</svg>
