<svg width="14" height="17" viewBox="0 0 14 17" fill="none" xmlns="http://www.w3.org/2000/svg">
<path d="M7.7041 2.44347V0H0V16.788H7.7041V14.3446C6.12591 14.3446 4.61234 13.7176 3.49642 12.6017C2.38048 11.4857 1.75355 9.97222 1.75355 8.39403C1.75355 6.81584 2.38048 5.30227 3.49642 4.18635C4.61234 3.0704 6.12591 2.44347 7.7041 2.44347Z" fill="#586E84"/>
<path d="M7.7041 2.44348V14.3446C9.28229 14.3446 10.7959 13.7176 11.9118 12.6017C13.0278 11.4857 13.6547 9.97223 13.6547 8.39404C13.6547 6.81585 13.0278 5.30228 11.9118 4.18636C10.7959 3.07042 9.28229 2.44348 7.7041 2.44348Z" fill="#586E84"/>
</svg>
