<svg width="20" height="19" viewBox="0 0 20 19" fill="none" xmlns="http://www.w3.org/2000/svg">
<path d="M13.0401 15.2268L0.729246 6.73479C-0.518306 5.87427 -0.0942208 4.08253 1.46144 3.66119L14.5456 0.109989C14.8228 0.00997888 15.1198 -0.0224863 15.4121 0.0152902C15.7043 0.0530667 15.9833 0.159994 16.2259 0.327199C16.4685 0.494404 16.6678 0.717062 16.8071 0.976694C16.9464 1.23633 17.0218 1.52545 17.027 1.82005L16.2516 13.8626C16.1596 15.292 14.2876 16.0873 13.0401 15.2268Z" fill="#586E84"/>
<path d="M9.13535 17.3229L1.88265 3.13944C1.71686 2.81496 1.64391 2.451 1.67183 2.08769C1.69976 1.72438 1.82748 1.37585 2.0409 1.08052C2.25433 0.785187 2.54517 0.554534 2.88136 0.413996C3.21754 0.273457 3.58601 0.228496 3.94612 0.284073L17.3872 2.35852C17.6966 2.40628 17.9903 2.52682 18.2441 2.71021C18.4979 2.89361 18.7045 3.13463 18.847 3.41344C18.9895 3.69226 19.0638 4.00092 19.0637 4.31404C19.0637 4.62716 18.9893 4.9358 18.8468 5.21457L12.655 17.3236C12.4887 17.6472 12.2365 17.9186 11.9259 18.1081C11.6154 18.2976 11.2587 18.3978 10.895 18.3978C10.5312 18.3977 10.1745 18.2974 9.86405 18.1078C9.5536 17.9181 9.30148 17.6466 9.13535 17.3229Z" fill="#586E84"/>
<path d="M13.5565 5.01742L10.9757 4.59949L7.80713 5.5022L9.07187 8.09828L12.0335 10.2426C12.0988 10.2894 12.1707 10.3252 12.2465 10.3488L13.3714 8.0406L13.5565 5.01742Z" fill="white"/>
</svg>
